<svg width="25" height="25" viewBox="0 0 25 25" fill="none" xmlns="http://www.w3.org/2000/svg">
<g clip-path="url(#clip0)">
<path d="M19.9486 11.8505C19.7924 12.1685 19.6254 12.4817 19.4505 12.7887C19.3798 12.9129 19.4316 13.0708 19.5615 13.1305C21.9752 14.2383 23.4391 15.8668 23.4391 17.5781C23.4391 18.2714 23.2026 18.8871 22.8694 19.4105C22.8007 19.5185 22.828 19.6615 22.9316 19.7367C23.2084 19.9379 23.4508 20.1835 23.6484 20.4631C23.7458 20.6009 23.951 20.6006 24.0474 20.4621C26.0273 17.6156 24.9883 13.9344 20.2705 11.7381C20.1506 11.6823 20.0069 11.7317 19.9486 11.8505Z" fill="#8F6329"/>
<path d="M21.0954 20.7031C20.2992 20.7031 19.6425 21.2988 19.5457 22.0687C19.4733 22.0779 19.401 22.0968 19.3307 22.1274C14.9607 24.0338 8.61221 23.8668 4.60024 21.5942C0.0534131 19.0169 0.844283 15.2386 5.44126 13.1306C5.57138 13.0709 5.62348 12.913 5.55263 12.7886C5.37778 12.4816 5.21084 12.1685 5.05468 11.8506C4.99629 11.7317 4.85249 11.6824 4.73242 11.7383C-1.11895 14.4669 -1.68585 19.8285 3.83022 22.9536C8.32241 25.4988 15.2036 25.6336 19.9557 23.56C20.0096 23.5365 20.0591 23.5072 20.1047 23.4738C21.1105 24.2995 22.6579 23.594 22.6579 22.2656C22.6579 21.4027 21.9583 20.7031 21.0954 20.7031Z" fill="#8F6329"/>
<path d="M7.44399 16.4067C7.50605 16.3829 7.57016 16.3592 7.63628 16.3358C7.79477 16.2797 7.84907 16.0832 7.74311 15.9526C7.51557 15.6723 7.28637 15.379 7.05903 15.0739C6.99282 14.9851 6.87519 14.9512 6.77226 14.9921C3.66162 16.2286 3.74351 18.3286 5.56167 19.5444C5.65688 19.6079 5.76089 19.648 5.86684 19.6655C5.93584 20.4785 6.62842 21.1145 7.46406 21.0932C8.40136 21.0694 9.10932 20.209 8.96723 19.2822C8.79209 18.1398 7.42695 17.5701 6.48257 18.2837C6.44057 18.2491 5.86098 17.8898 5.86098 17.5781C5.86098 17.3071 6.34731 16.8257 7.44399 16.4067Z" fill="#8F6329"/>
<path d="M20.7048 17.5781C20.7048 16.2978 19.4407 15.4732 18.2312 14.9922C18.128 14.9512 18.0105 14.985 17.9442 15.074C17.7171 15.3787 17.4878 15.6722 17.26 15.9526C17.1532 16.084 17.2098 16.2803 17.3695 16.3367C18.6 16.7714 19.1423 17.2919 19.1423 17.5781C19.1423 17.8613 18.6217 18.3579 17.4797 18.7788C15.5398 19.493 12.9114 19.646 10.8094 19.4564C10.6712 19.444 10.5513 19.549 10.5445 19.6877C10.5276 20.0285 10.4568 20.3581 10.335 20.6691C10.2761 20.8192 10.3782 20.9842 10.5387 20.9998C15.0826 21.4399 20.7048 20.2881 20.7048 17.5781Z" fill="#8F6329"/>
<path d="M12.5016 9.375C13.796 9.375 14.8454 8.32567 14.8454 7.03125C14.8454 5.73683 13.796 4.6875 12.5016 4.6875C11.2072 4.6875 10.1579 5.73683 10.1579 7.03125C10.1579 8.32567 11.2072 9.375 12.5016 9.375Z" fill="#8F6329"/>
<path d="M11.9845 18.1641C12.278 18.4227 12.7212 18.4263 13.0187 18.1641C13.2882 17.9258 19.6286 12.2725 19.6286 7.12695C19.6286 3.19727 16.4313 0 12.5016 0C8.57193 0 5.37467 3.19727 5.37467 7.12695C5.37467 12.2725 11.715 17.9258 11.9845 18.1641ZM8.59537 7.03125C8.59537 4.87744 10.3478 3.125 12.5016 3.125C14.6554 3.125 16.4079 4.87744 16.4079 7.03125C16.4079 9.18506 14.6554 10.9375 12.5016 10.9375C10.3478 10.9375 8.59537 9.18506 8.59537 7.03125Z" fill="#8F6329"/>
</g>
<defs>
<clipPath id="clip0">
<rect width="25" height="25" fill="white"/>
</clipPath>
</defs>
</svg>
