<svg width="13" height="13" viewBox="0 0 13 13" fill="none" xmlns="http://www.w3.org/2000/svg">
<g clip-path="url(#clip0)">
<path d="M12.8856 10.8181L7.18208 1.35935C7.03794 1.12029 6.77913 0.974121 6.49996 0.974121C6.22079 0.974121 5.96199 1.12027 5.81784 1.35935L0.114399 10.8181C-0.0339331 11.0641 -0.0383257 11.371 0.102948 11.6211C0.244221 11.8712 0.509223 12.0259 0.796493 12.0259H12.2035C12.4907 12.0259 12.7557 11.8712 12.897 11.6211C13.0383 11.3709 13.0339 11.0641 12.8856 10.8181ZM6.50423 4.24601C6.83179 4.24601 7.10896 4.4308 7.10896 4.75834C7.10896 5.75779 6.99137 7.19404 6.99137 8.19349C6.99137 8.45387 6.70581 8.56303 6.50423 8.56303C6.23549 8.56303 6.00871 8.45385 6.00871 8.19349C6.00871 7.19404 5.89115 5.75779 5.89115 4.75834C5.89115 4.4308 6.15988 4.24601 6.50423 4.24601ZM6.51263 10.436C6.1431 10.436 5.86591 10.1337 5.86591 9.78932C5.86591 9.43657 6.14307 9.14262 6.51263 9.14262C6.85698 9.14262 7.15095 9.43657 7.15095 9.78932C7.15095 10.1337 6.85698 10.436 6.51263 10.436Z" fill="#B99560"/>
</g>
<defs>
<clipPath id="clip0">
<rect width="13" height="13" fill="white"/>
</clipPath>
</defs>
</svg>
