<svg width="18" height="18" viewBox="0 0 18 18" fill="none" xmlns="http://www.w3.org/2000/svg">
<g clip-path="url(#clip0)">
<path d="M16.0556 8.11975C15.9562 8.20886 15.8095 8.21358 15.7035 8.13296L12.1943 5.46252L10.5318 15.4083C10.5257 15.446 10.512 15.4804 10.4927 15.5116C10.1594 16.9373 8.33995 18 6.20039 18C3.80199 18 1.85056 16.6719 1.85056 15.0391C1.85056 13.4064 3.80152 12.0778 6.20039 12.0778C7.1853 12.0778 8.12165 12.298 8.88262 12.702L11.0816 0.23008C11.1014 0.116455 11.1905 0.0254599 11.306 0.00424346C11.4173 -0.015087 11.5342 0.0358323 11.5936 0.136257L16.1103 7.76992C16.1787 7.8859 16.1556 8.03065 16.0556 8.11975Z" fill="#8F6329"/>
</g>
<defs>
<clipPath id="clip0">
<rect width="18" height="18" fill="white"/>
</clipPath>
</defs>
</svg>
