<svg width="45" height="45" viewBox="0 0 45 45" fill="none" xmlns="http://www.w3.org/2000/svg">
<g clip-path="url(#clip0)">
<path d="M23.8184 26.1033C23.8184 25.3752 23.2281 24.785 22.5 24.785C21.7719 24.785 21.1816 25.3752 21.1816 26.1033V34.0135C21.1816 34.7416 21.7719 35.3318 22.5 35.3318C23.2281 35.3318 23.8184 34.7416 23.8184 34.0135V26.1033ZM19.8633 35.3318H14.5898C13.8618 35.3318 13.2715 35.9221 13.2715 36.6502C13.2715 37.3783 13.8618 37.9686 14.5898 37.9686H19.8633C20.5914 37.9686 21.1816 37.3783 21.1816 36.6502C21.1816 35.9221 20.5914 35.3318 19.8633 35.3318ZM30.4102 35.3318H25.1367C24.4086 35.3318 23.8184 35.9221 23.8184 36.6502C23.8184 37.3783 24.4086 37.9686 25.1367 37.9686H30.4102C31.1382 37.9686 31.7285 37.3783 31.7285 36.6502C31.7285 35.9221 31.1382 35.3318 30.4102 35.3318Z" fill="url(#paint0_linear)"/>
<path d="M37.7054 30.5133C37.1906 31.0282 37.1906 31.8629 37.7054 32.3777C38.9521 33.6245 39.6386 35.2788 39.6386 37.0363C39.6386 38.7938 38.952 40.4482 37.7054 41.6949C37.1906 42.2097 37.1906 43.0444 37.7054 43.5593C38.2202 44.0741 39.055 44.0741 39.5699 43.5593C41.3146 41.8146 42.2753 39.498 42.2753 37.0363C42.2753 34.5746 41.3145 32.258 39.5699 30.5133C39.055 29.9985 38.2202 29.9986 37.7054 30.5133ZM33.9789 34.2398C33.4641 34.7547 33.4642 35.5894 33.979 36.1042C34.228 36.3532 34.3651 36.6842 34.3651 37.0364C34.3651 37.3886 34.228 37.7196 33.979 37.9685C33.4642 38.4832 33.4641 39.3179 33.9789 39.8329C34.4936 40.3478 35.3284 40.3478 35.8433 39.8331C36.5904 39.0861 37.0019 38.0929 37.0019 37.0364C37.0019 35.9799 36.5904 34.9866 35.8433 34.2396C35.3285 33.7248 34.4937 33.7248 33.9789 34.2398ZM6.4343 30.5133C5.91961 29.9986 5.08482 29.9985 4.56987 30.5133C2.82516 32.258 1.86434 34.5746 1.86434 37.0364C1.86434 39.4982 2.82524 41.8147 4.56987 43.5595C5.08465 44.0742 5.91943 44.0742 6.4343 43.5595C6.94916 43.0446 6.94916 42.2099 6.4343 41.695C5.18757 40.4484 4.50105 38.7939 4.50105 37.0365C4.50105 35.279 5.18766 33.6246 6.4343 32.3779C6.94916 31.863 6.94916 31.0282 6.4343 30.5133ZM10.1606 34.2397C9.64582 33.7248 8.81104 33.7248 8.29617 34.2397C7.5491 34.9868 7.13769 35.9799 7.13769 37.0364C7.13769 38.0928 7.5491 39.086 8.29617 39.833C8.81104 40.3478 9.64582 40.3478 10.1606 39.833C10.6755 39.3181 10.6755 38.4834 10.1606 37.9686C9.9116 37.7196 9.7744 37.3885 9.7744 37.0364C9.7744 36.6843 9.9116 36.3532 10.1606 36.1041C10.6755 35.5893 10.6755 34.7545 10.1606 34.2397ZM22.5 32.6951C20.3192 32.6951 18.5449 34.4694 18.5449 36.6502C18.5449 38.831 20.3192 40.6053 22.5 40.6053C24.6808 40.6053 26.4551 38.831 26.4551 36.6502C26.4551 34.4694 24.6808 32.6951 22.5 32.6951ZM9.22852 27.4217H35.6836C40.8206 27.4217 45 23.2818 45 18.1932C45 13.1046 40.8206 8.96466 35.6836 8.96466C35.5968 8.96466 35.5097 8.96589 35.4227 8.96835C32.9571 4.13068 27.984 1.0545 22.5 1.0545C16.8691 1.0545 11.8963 4.26655 9.49025 8.96835C9.40298 8.96589 9.31579 8.96466 9.22852 8.96466C4.13991 8.96466 0 13.1046 0 18.1932C0 23.2818 4.13991 27.4217 9.22852 27.4217Z" fill="url(#paint1_linear)"/>
</g>
<defs>
<linearGradient id="paint0_linear" x1="22.5" y1="37.9686" x2="22.5" y2="24.785" gradientUnits="userSpaceOnUse">
<stop stop-color="#B99560"/>
<stop offset="0.5028" stop-color="#8F6329"/>
<stop offset="1" stop-color="#8F6329"/>
</linearGradient>
<linearGradient id="paint1_linear" x1="22.5" y1="43.9455" x2="22.5" y2="1.0545" gradientUnits="userSpaceOnUse">
<stop stop-color="#8F6329"/>
<stop offset="1" stop-color="#8F6329"/>
</linearGradient>
<clipPath id="clip0">
<rect width="45" height="45" fill="white"/>
</clipPath>
</defs>
</svg>
