<svg width="50" height="50" viewBox="0 0 50 50" fill="none" xmlns="http://www.w3.org/2000/svg">
<g clip-path="url(#clip0)">
<path d="M25 16.5083C22.0383 16.5083 19.6287 18.9179 19.6287 21.8796C19.6287 24.3335 21.2834 26.4067 23.5351 27.0462V43.7553C23.5351 44.5644 24.191 45.2202 25 45.2202C25.809 45.2202 26.4649 44.5644 26.4649 43.7553V27.0462C28.7166 26.4068 30.3713 24.3335 30.3713 21.8796C30.3713 18.9179 27.9617 16.5083 25 16.5083Z" fill="#8F6329"/>
<path d="M18.223 14.0478C17.651 13.4758 16.7235 13.4758 16.1514 14.0478C11.6097 18.5893 11.609 25.9409 16.1514 30.4831C16.7235 31.0552 17.6509 31.0552 18.223 30.4831C18.7951 29.9111 18.7951 28.9835 18.223 28.4114C14.8264 25.0149 14.8258 19.5166 18.223 16.1195C18.7951 15.5474 18.7951 14.6198 18.223 14.0478Z" fill="#8F6329"/>
<path d="M33.8486 14.0478C33.2766 13.4758 32.349 13.4758 31.7769 14.0478C31.2048 14.6198 31.2048 15.5474 31.7769 16.1195C35.1658 19.5084 35.1658 25.0225 31.7769 28.4114C31.2048 28.9834 31.2048 29.911 31.7769 30.4831C32.3491 31.0552 33.2765 31.0552 33.8486 30.4831C38.3799 25.952 38.3799 18.5789 33.8486 14.0478Z" fill="#8F6329"/>
<path d="M13.8034 11.6999C14.3755 11.1279 14.3755 10.2003 13.8034 9.62821C13.2314 9.05622 12.3039 9.05622 11.7318 9.62821C4.76356 16.5964 4.76356 27.9344 11.7318 34.9026C12.3037 35.4746 13.2312 35.4749 13.8034 34.9026C14.3755 34.3306 14.3755 33.4031 13.8034 32.831C7.97764 27.0051 7.97764 17.5258 13.8034 11.6999Z" fill="#8F6329"/>
<path d="M38.2682 9.62821C37.6962 9.05622 36.7686 9.05622 36.1965 9.62821C35.6244 10.2002 35.6244 11.1278 36.1965 11.6999C42.0223 17.5258 42.0223 27.0051 36.1965 32.831C35.6244 33.403 35.6244 34.3305 36.1965 34.9026C36.7687 35.4747 37.6961 35.4747 38.2682 34.9026C45.2364 27.9344 45.2364 16.5964 38.2682 9.62821Z" fill="#8F6329"/>
<path d="M9.38385 7.28031C9.95594 6.70832 9.95594 5.78075 9.38385 5.20866C8.81186 4.63666 7.88428 4.63666 7.31219 5.20866C-2.44801 14.9688 -2.42682 29.5832 7.31219 39.3223C7.88409 39.8943 8.81166 39.8945 9.38385 39.3223C9.95594 38.7503 9.95594 37.8227 9.38385 37.2506C0.841069 28.7076 0.841069 15.8233 9.38385 7.28031Z" fill="#8F6329"/>
<path d="M42.6878 5.20866C42.1158 4.63666 41.1883 4.63666 40.6162 5.20866C40.0441 5.78065 40.0441 6.70822 40.6162 7.28031C49.1592 15.8233 49.1592 28.7076 40.6162 37.2506C40.0441 37.8226 40.0441 38.7502 40.6162 39.3223C41.1884 39.8943 42.1157 39.8943 42.6878 39.3223C52.4479 29.5622 52.4269 14.9477 42.6878 5.20866Z" fill="#8F6329"/>
</g>
<defs>
<clipPath id="clip0">
<rect width="50" height="50" fill="white"/>
</clipPath>
</defs>
</svg>
