<svg width="25" height="25" viewBox="0 0 25 25" fill="none" xmlns="http://www.w3.org/2000/svg">
<path d="M18.75 11.7802L24.2057 10.2237C24.4699 10.1456 24.6928 9.96695 24.8267 9.72622C24.9606 9.48549 24.9948 9.20186 24.9219 8.93622L22.6361 0.922546C22.5986 0.790978 22.5355 0.668087 22.4505 0.56089C22.3655 0.453694 22.2602 0.364292 22.1407 0.29779C22.0211 0.231288 21.8896 0.188989 21.7537 0.173308C21.6178 0.157627 21.4801 0.168872 21.3486 0.2064L6.32318 4.49338C6.16274 4.54154 6.01613 4.62731 5.89554 4.74357C5.77495 4.85982 5.68387 5.0032 5.62988 5.16176C5.57589 5.32032 5.56054 5.48949 5.58513 5.65518C5.60971 5.82087 5.67352 5.97829 5.77122 6.11434L11.0625 13.2706C11.1894 13.4401 11.3645 13.5674 11.565 13.6356C11.7654 13.7038 11.9819 13.7099 12.1858 13.6529L16.6667 12.3746V20.8334C16.6667 21.1096 16.7764 21.3746 16.9718 21.5699C17.1671 21.7653 17.4321 21.875 17.7083 21.875H19.7917V19.7917H18.75V11.7802ZM21.3348 7.24442C21.5329 7.18795 21.7433 7.19148 21.9394 7.25459C22.1355 7.3177 22.3085 7.43754 22.4365 7.59896C22.5645 7.76039 22.6418 7.95614 22.6586 8.16147C22.6753 8.3668 22.6308 8.57249 22.5307 8.75253C22.4305 8.93257 22.2792 9.07887 22.0959 9.17293C21.9127 9.267 21.7056 9.3046 21.5009 9.28098C21.2963 9.25737 21.1032 9.1736 20.9462 9.04027C20.7891 8.90694 20.6751 8.73004 20.6186 8.53192C20.5811 8.40036 20.5698 8.2627 20.5855 8.12679C20.6012 7.99088 20.6435 7.85939 20.71 7.73984C20.7765 7.62028 20.8659 7.51499 20.9731 7.42999C21.0803 7.34498 21.2032 7.28193 21.3348 7.24442ZM17.328 8.38752C17.5261 8.33105 17.7365 8.33458 17.9326 8.39769C18.1288 8.4608 18.3018 8.58064 18.4298 8.74206C18.5578 8.90349 18.635 9.09924 18.6518 9.30457C18.6685 9.5099 18.624 9.71559 18.5239 9.89563C18.4237 10.0757 18.2725 10.222 18.0892 10.316C17.9059 10.4101 17.6988 10.4477 17.4942 10.4241C17.2895 10.4005 17.0965 10.3167 16.9394 10.1834C16.7824 10.05 16.6684 9.87313 16.6119 9.67502C16.5743 9.54346 16.5631 9.4058 16.5788 9.26989C16.5944 9.13398 16.6367 9.00249 16.7032 8.88294C16.7697 8.76338 16.8591 8.65809 16.9663 8.57309C17.0735 8.48808 17.1964 8.42503 17.328 8.38752Z" fill="#8F6329"/>
<path d="M24.5059 16.8229C24.3549 16.7296 24.1825 16.6764 24.0051 16.6684C23.8277 16.6604 23.6512 16.6979 23.4924 16.7774L21.4091 17.819C21.2361 17.9055 21.0907 18.0384 20.989 18.2028C20.8873 18.3672 20.8334 18.5567 20.8333 18.75V22.9167C20.8333 23.1101 20.8871 23.2997 20.9888 23.4643C21.0905 23.6288 21.236 23.7618 21.4091 23.8483L23.4924 24.89C23.6515 24.9665 23.8273 25.0018 24.0036 24.9925C24.1799 24.9833 24.3511 24.9297 24.5013 24.8369C24.6514 24.7441 24.7759 24.615 24.863 24.4614C24.9502 24.3079 24.9973 24.1349 25 23.9583V17.7083C24.9998 17.5309 24.9544 17.3564 24.8679 17.2015C24.7815 17.0465 24.6569 16.9162 24.5059 16.8229Z" fill="#8F6329"/>
<path d="M4.60571 6.06653C4.47414 6.10403 4.35125 6.16709 4.24405 6.25209C4.13686 6.3371 4.04745 6.44238 3.98095 6.56194C3.91445 6.6815 3.87215 6.81299 3.85647 6.94889C3.84079 7.0848 3.85203 7.22247 3.88956 7.35403L5.31834 12.3625C5.39644 12.6266 5.57502 12.8496 5.81574 12.9835C6.05645 13.1174 6.34009 13.1516 6.60571 13.0786L9.09907 12.3672L4.9337 6.73359C4.78521 6.53273 4.6741 6.30677 4.60571 6.06653Z" fill="#8F6329"/>
<path d="M2.88776 7.63983L1.88594 7.92629C1.62181 8.00442 1.39885 8.18301 1.26495 8.42372C1.13105 8.66442 1.09688 8.94804 1.16979 9.21366L2.02722 12.2187C2.10516 12.483 2.28377 12.7062 2.52459 12.8401C2.76541 12.974 3.04919 13.0081 3.31485 12.9349L4.31628 12.6492L2.88776 7.63983Z" fill="#8F6329"/>
</svg>
