<svg width="13" height="13" viewBox="0 0 13 13" fill="none" xmlns="http://www.w3.org/2000/svg">
<g clip-path="url(#clip0)">
<path d="M12.9591 6.36709C12.9456 6.32309 12.6164 5.27752 11.6538 4.23463C10.7811 3.28919 9.20209 2.16578 6.61884 2.132C6.58018 2.131 6.54145 2.13037 6.50264 2.13037C6.50198 2.13037 6.50128 2.1304 6.50062 2.1304C6.50041 2.1304 6.5002 2.1304 6.50002 2.1304C3.84574 2.1304 2.23233 3.2747 1.34623 4.23463C0.383561 5.27749 0.0544544 6.32309 0.0409236 6.36709L0 6.50002L0.0408935 6.63294C0.0544242 6.67694 0.383531 7.72252 1.3462 8.76541C2.21892 9.71084 3.79788 10.8343 6.38116 10.868C6.41983 10.869 6.45855 10.8697 6.49737 10.8697C6.49803 10.8697 6.49872 10.8696 6.49938 10.8696C6.4996 10.8696 6.49981 10.8696 6.50002 10.8696C9.1543 10.8696 10.7677 9.72534 11.6538 8.76541C12.6165 7.72255 12.9456 6.67694 12.9591 6.63294L13 6.50002L12.9591 6.36709ZM4.09761 8.99778C3.44696 8.37211 3.07021 7.53061 3.03679 6.62827C3.00252 5.70324 3.33054 4.82022 3.96043 4.14187C4.59032 3.46353 5.44664 3.0711 6.3717 3.03684C6.41519 3.03524 6.45921 3.03443 6.50261 3.03443C7.40106 3.03443 8.25328 3.37812 8.90234 4.00225C9.55302 4.62789 9.92974 5.46939 9.96316 6.3717C9.99742 7.29676 9.66937 8.17982 9.03951 8.85816C8.40963 9.53651 7.5533 9.92893 6.62821 9.96319C6.58476 9.96479 6.54073 9.96561 6.49734 9.96561C5.59891 9.96561 4.74666 9.62188 4.09761 8.99778Z" fill="#B99560"/>
<path d="M6.5969 9.11669C7.29583 9.09084 7.94286 8.79431 8.41882 8.28176C8.89472 7.76922 9.14258 7.10203 9.11666 6.4031C9.09144 5.72132 8.80678 5.08546 8.31509 4.6127C7.82473 4.14121 7.18059 3.8815 6.5014 3.8815C6.46877 3.8815 6.43592 3.8821 6.40304 3.88334C5.70411 3.90919 5.05705 4.2057 4.58112 4.71827C4.1052 5.23081 3.85736 5.898 3.88325 6.5969C3.9085 7.27871 4.19316 7.91457 4.68485 8.38733C5.17521 8.85882 5.81932 9.11853 6.49851 9.11853C6.53118 9.11853 6.56402 9.11793 6.5969 9.11669ZM6.49999 6.04799C6.49999 5.79835 6.70238 5.59596 6.95202 5.59596C7.20166 5.59596 7.40405 5.79835 7.40405 6.04799C7.40405 6.29763 7.20166 6.50002 6.95202 6.50002C6.70238 6.50002 6.49999 6.29763 6.49999 6.04799Z" fill="#B99560"/>
</g>
<defs>
<clipPath id="clip0">
<rect width="13" height="13" fill="white"/>
</clipPath>
</defs>
</svg>
