<svg width="25" height="25" viewBox="0 0 25 25" fill="none" xmlns="http://www.w3.org/2000/svg">
<path d="M18.8477 5.46875H2.24609C1.00762 5.46875 0 4.46113 0 3.22266V2.24609C0 1.00762 1.00762 0 2.24609 0H18.8477C20.0861 0 21.0938 1.00762 21.0938 2.24609V3.22266C21.0938 4.46113 20.0861 5.46875 18.8477 5.46875Z" fill="#8F6329"/>
<path d="M10.5469 15.625C11.8413 15.625 12.8906 14.5757 12.8906 13.2812C12.8906 11.9868 11.8413 10.9375 10.5469 10.9375C9.25246 10.9375 8.20312 11.9868 8.20312 13.2812C8.20312 14.5757 9.25246 15.625 10.5469 15.625Z" fill="#8F6329"/>
<path d="M18.8965 7.03125H2.19727C2.06245 7.03125 1.95312 7.14058 1.95312 7.27539V10.073C1.95312 14.8233 5.77227 18.7367 10.5225 18.75C15.2723 18.7632 19.1406 14.903 19.1406 10.1562V7.27539C19.1406 7.14058 19.0313 7.03125 18.8965 7.03125ZM10.5469 17.1875C8.39297 17.1875 6.64062 15.4352 6.64062 13.2812C6.64062 11.1273 8.39297 9.375 10.5469 9.375C12.7008 9.375 14.4531 11.1273 14.4531 13.2812C14.4531 15.4352 12.7008 17.1875 10.5469 17.1875Z" fill="#8F6329"/>
<path d="M19.5312 25C19.0998 25 18.75 24.6502 18.75 24.2188C18.75 23.7873 19.0998 23.4375 19.5312 23.4375C21.6852 23.4375 23.4375 21.6852 23.4375 19.5312C23.4375 19.0998 23.7873 18.75 24.2188 18.75C24.6502 18.75 25 19.0998 25 19.5312C25 22.5467 22.5467 25 19.5312 25Z" fill="#8F6329"/>
<path d="M19.5312 22.2656C19.0998 22.2656 18.75 21.9158 18.75 21.4844C18.75 21.0529 19.0998 20.7031 19.5312 20.7031C20.1774 20.7031 20.7031 20.1774 20.7031 19.5312C20.7031 19.0998 21.0529 18.75 21.4844 18.75C21.9159 18.75 22.2656 19.0998 22.2656 19.5312C22.2656 21.039 21.039 22.2656 19.5312 22.2656Z" fill="#8F6329"/>
<path d="M18.751 19.5312C18.3195 19.5312 17.9695 19.1814 17.9695 18.75C17.9695 18.3186 18.3191 17.9688 18.7505 17.9688H18.751C19.1825 17.9688 19.5322 18.3186 19.5322 18.75C19.5322 19.1814 19.1824 19.5312 18.751 19.5312Z" fill="#8F6329"/>
</svg>
