<svg width="18" height="18" viewBox="0 0 18 18" fill="none" xmlns="http://www.w3.org/2000/svg">
<g clip-path="url(#clip0)">
<path d="M14.747 0H3.25303C2.6552 0 2.1687 0.486502 2.1687 1.08434V16.9159C2.1687 17.5137 2.6552 18.0002 3.25303 18.0002H14.747C15.3449 18.0002 15.8314 17.5137 15.8314 16.9159V1.08434C15.8314 0.486317 15.3449 0 14.747 0ZM9.00003 0.623497C9.08976 0.623497 9.16269 0.696426 9.16269 0.786157C9.16269 0.875887 9.08976 0.948632 9.00003 0.948632C8.9103 0.948632 8.83737 0.875703 8.83737 0.785972C8.83737 0.696242 8.9103 0.623497 9.00003 0.623497ZM9.00003 17.4035C8.82038 17.4035 8.67471 17.258 8.67471 17.0781C8.67471 16.8983 8.82038 16.7526 9.00003 16.7526C9.17968 16.7526 9.32535 16.8983 9.32535 17.0781C9.32535 17.258 9.17968 17.4035 9.00003 17.4035ZM14.964 16.4004H3.03609V1.59927H14.964V16.4004Z" fill="#8F6329"/>
</g>
<defs>
<clipPath id="clip0">
<rect width="18" height="18" fill="white"/>
</clipPath>
</defs>
</svg>
