<svg width="13" height="13" viewBox="0 0 13 13" fill="none" xmlns="http://www.w3.org/2000/svg">
<path d="M8.5959 4.39685V6.82979C8.5959 7.98762 7.6579 8.94029 6.50007 8.94029C5.82587 8.94029 5.23962 8.63252 4.85858 8.13419L8.5959 4.39685Z" fill="#8F6329"/>
<path d="M8.59585 2.53552V4.39685L4.85855 8.13415C4.58007 7.78239 4.40421 7.32805 4.40421 6.84442V2.53552C4.40421 1.3777 5.34221 0.439697 6.50003 0.439697C7.08628 0.439697 7.59925 0.67419 7.98029 1.05526C8.36136 1.4363 8.59585 1.94927 8.59585 2.53552Z" fill="#8F6329"/>
<path d="M6.49998 9.37993C7.89233 9.37993 9.03551 8.23675 9.03551 6.82976V4.57272L11.8495 1.75874C12.0253 1.58288 12.0253 1.3044 11.8495 1.14318C11.6736 0.967316 11.3951 0.967316 11.2339 1.14318L9.03551 3.34159V2.53552C9.03551 1.86133 8.7717 1.23112 8.28804 0.747467C7.80438 0.263808 7.17418 0 6.49998 0C5.10764 0 3.96446 1.14318 3.96446 2.53552V6.84443C3.96446 7.26946 4.08172 7.70913 4.30154 8.07556L3.77395 8.61782C3.43687 8.0902 3.26098 7.48928 3.26098 6.84443V5.11501C3.26098 4.86584 3.07045 4.67533 2.82131 4.67533C2.57217 4.67533 2.38164 4.86587 2.38164 5.11501V6.84443C2.38164 7.70916 2.64545 8.55921 3.14375 9.24805L1.15051 11.2266C0.97465 11.4025 0.97465 11.681 1.15051 11.8422C1.23846 11.9302 1.35569 11.9741 1.45828 11.9741C1.57554 11.9741 1.67813 11.9302 1.76605 11.8422L3.71532 9.92225C4.37484 10.5231 5.18094 10.8896 6.06031 10.9775V12.1207H4.68264C4.43348 12.1207 4.24297 12.3112 4.24297 12.5603C4.24297 12.8095 4.4335 13 4.68264 13H8.31736C8.56652 13 8.75703 12.8095 8.75703 12.5603C8.75703 12.3112 8.56649 12.1207 8.31736 12.1207H6.93968V10.9775C9.02086 10.743 10.6477 8.98424 10.6477 6.84443V5.11501C10.6477 4.86584 10.4572 4.67533 10.208 4.67533C9.95889 4.67533 9.76836 4.86587 9.76836 5.11501V6.84443C9.76836 8.64713 8.30274 10.1128 6.50004 10.1128C5.69394 10.1128 4.93183 9.81963 4.33094 9.29201L4.84392 8.76439C5.29817 9.16011 5.88442 9.37993 6.49998 9.37993ZM8.15614 6.82976C8.15614 7.75309 7.40867 8.50056 6.49998 8.50056C6.11891 8.50056 5.76719 8.36865 5.47406 8.13416L8.15614 5.45209V6.82976ZM4.84383 2.53552C4.84383 1.62684 5.5913 0.879371 6.49998 0.879371C6.93965 0.879371 7.35004 1.04059 7.67248 1.36303C7.99492 1.68547 8.15614 2.08118 8.15614 2.53552V4.22099L4.94645 7.41601C4.87317 7.22547 4.84386 7.03494 4.84386 6.8444V2.53552H4.84383Z" fill="#B99560"/>
</svg>
