<svg width="31" height="30" viewBox="0 0 31 30" fill="none" xmlns="http://www.w3.org/2000/svg">
<path d="M3.22726 18C2.92579 18 2.68178 17.7557 2.68178 17.4545V11.9999C2.68178 11.6987 2.92571 11.4545 3.22726 11.4545C3.5288 11.4545 3.77274 11.6987 3.77274 11.9999V17.4545C3.77274 17.7557 3.5288 18 3.22726 18Z" fill="url(#paint0_radial)"/>
<path d="M4.86361 19.6364C4.56215 19.6364 4.31813 19.3921 4.31813 19.0909V10.3637C4.31813 10.0624 4.56207 9.81818 4.86361 9.81818C5.16516 9.81818 5.40909 10.0624 5.40909 10.3637V19.091C5.40909 19.3921 5.16516 19.6364 4.86361 19.6364Z" fill="url(#paint1_radial)"/>
<path d="M8.13633 18C7.83487 18 7.59085 17.7557 7.59085 17.4545V11.9999C7.59085 11.6987 7.83479 11.4545 8.13633 11.4545C8.43788 11.4545 8.68181 11.6987 8.68181 11.9999V17.4545C8.68181 17.7557 8.43788 18 8.13633 18Z" fill="url(#paint2_radial)"/>
<path d="M9.7727 19.6364C9.47124 19.6364 9.22722 19.3921 9.22722 19.0909V10.3637C9.22722 10.0624 9.47116 9.81818 9.7727 9.81818C10.0742 9.81818 10.3182 10.0624 10.3182 10.3637V19.091C10.3182 19.3921 10.0742 19.6364 9.7727 19.6364Z" fill="url(#paint3_radial)"/>
<path d="M11.4091 20.1818C11.1076 20.1818 10.8636 19.9376 10.8636 19.6363V9.81817C10.8636 9.51695 11.1075 9.27269 11.4091 9.27269C11.7106 9.27269 11.9546 9.51695 11.9546 9.81817V19.6363C11.9546 19.9376 11.7106 20.1818 11.4091 20.1818Z" fill="url(#paint4_radial)"/>
<path d="M13.0454 19.6364C12.7439 19.6364 12.4999 19.3921 12.4999 19.0909V10.3637C12.4999 10.0624 12.7439 9.81818 13.0454 9.81818C13.3469 9.81818 13.5909 10.0624 13.5909 10.3637V19.091C13.5909 19.3921 13.3469 19.6364 13.0454 19.6364Z" fill="url(#paint5_radial)"/>
<path d="M6.49996 24C6.1985 24 5.95448 23.7557 5.95448 23.4545V6.54545C5.95448 6.24422 6.19842 5.99997 6.49996 5.99997C6.80151 5.99997 7.04544 6.24422 7.04544 6.54545V23.4546C7.04544 23.7558 6.80151 24 6.49996 24Z" fill="url(#paint6_radial)"/>
<path d="M21.2272 18C20.9258 18 20.6817 17.7557 20.6817 17.4545V11.9999C20.6817 11.6987 20.9257 11.4545 21.2272 11.4545C21.5287 11.4545 21.7727 11.6987 21.7727 11.9999V17.4545C21.7727 17.7557 21.5288 18 21.2272 18Z" fill="url(#paint7_radial)"/>
<path d="M22.8636 19.6364C22.5621 19.6364 22.3181 19.3921 22.3181 19.0909V10.3637C22.3181 10.0624 22.562 9.81818 22.8636 9.81818C23.1651 9.81818 23.4091 10.0624 23.4091 10.3637V19.091C23.4091 19.3921 23.1651 19.6364 22.8636 19.6364Z" fill="url(#paint8_radial)"/>
<path d="M26.1363 18C25.8349 18 25.5909 17.7557 25.5909 17.4545V11.9999C25.5909 11.6987 25.8348 11.4545 26.1363 11.4545C26.4379 11.4545 26.6818 11.6987 26.6818 11.9999V17.4545C26.6818 17.7557 26.4379 18 26.1363 18Z" fill="url(#paint9_radial)"/>
<path d="M27.7727 19.6364C27.4712 19.6364 27.2272 19.3921 27.2272 19.0909V10.3637C27.2272 10.0624 27.4711 9.81818 27.7727 9.81818C28.0742 9.81818 28.3182 10.0624 28.3182 10.3637V19.091C28.3182 19.3921 28.0742 19.6364 27.7727 19.6364Z" fill="url(#paint10_radial)"/>
<path d="M24.4999 24C24.1985 24 23.9544 23.7557 23.9544 23.4545V6.54545C23.9544 6.24422 24.1984 5.99997 24.4999 5.99997C24.8015 5.99997 25.0454 6.24422 25.0454 6.54545V23.4546C25.0454 23.7558 24.8015 24 24.4999 24Z" fill="url(#paint11_radial)"/>
<path d="M14.6818 18C14.3803 18 14.1363 17.7557 14.1363 17.4545V11.9999C14.1363 11.6987 14.3802 11.4545 14.6818 11.4545C14.9833 11.4545 15.2273 11.6987 15.2273 11.9999V17.4545C15.2273 17.7557 14.9833 18 14.6818 18Z" fill="url(#paint12_radial)"/>
<path d="M16.3181 19.6364C16.0167 19.6364 15.7727 19.3921 15.7727 19.0909V10.3637C15.7727 10.0624 16.0166 9.81818 16.3181 9.81818C16.6197 9.81818 16.8636 10.0624 16.8636 10.3637V19.091C16.8636 19.3921 16.6197 19.6364 16.3181 19.6364Z" fill="url(#paint13_radial)"/>
<path d="M17.9545 24C17.653 24 17.409 23.7557 17.409 23.4545V6.54545C17.409 6.24422 17.653 5.99997 17.9545 5.99997C18.2561 5.99997 18.5 6.24422 18.5 6.54545V23.4546C18.5 23.7558 18.2561 24 17.9545 24Z" fill="url(#paint14_radial)"/>
<path d="M19.5909 25.6363C19.2894 25.6363 19.0454 25.3921 19.0454 25.0908V4.90908C19.0454 4.60786 19.2893 4.3636 19.5909 4.3636C19.8924 4.3636 20.1363 4.60786 20.1363 4.90908V25.0909C20.1363 25.3921 19.8924 25.6363 19.5909 25.6363Z" fill="url(#paint15_radial)"/>
<defs>
<radialGradient id="paint0_radial" cx="0" cy="0" r="1" gradientUnits="userSpaceOnUse" gradientTransform="translate(3.22726 14.7272) rotate(90) scale(3.27276 0.545481)">
<stop stop-color="#8F6329"/>
<stop offset="1" stop-color="#241F19"/>
</radialGradient>
<radialGradient id="paint1_radial" cx="0" cy="0" r="1" gradientUnits="userSpaceOnUse" gradientTransform="translate(4.86361 14.7273) rotate(90) scale(4.90909 0.545481)">
<stop stop-color="#8F6329"/>
<stop offset="1" stop-color="#241F19"/>
</radialGradient>
<radialGradient id="paint2_radial" cx="0" cy="0" r="1" gradientUnits="userSpaceOnUse" gradientTransform="translate(8.13633 14.7272) rotate(90) scale(3.27276 0.545481)">
<stop stop-color="#8F6329"/>
<stop offset="1" stop-color="#241F19"/>
</radialGradient>
<radialGradient id="paint3_radial" cx="0" cy="0" r="1" gradientUnits="userSpaceOnUse" gradientTransform="translate(9.7727 14.7273) rotate(90) scale(4.90909 0.545482)">
<stop stop-color="#8F6329"/>
<stop offset="1" stop-color="#241F19"/>
</radialGradient>
<radialGradient id="paint4_radial" cx="0" cy="0" r="1" gradientUnits="userSpaceOnUse" gradientTransform="translate(11.4091 14.7273) rotate(90) scale(5.45457 0.545482)">
<stop stop-color="#8F6329"/>
<stop offset="1" stop-color="#241F19"/>
</radialGradient>
<radialGradient id="paint5_radial" cx="0" cy="0" r="1" gradientUnits="userSpaceOnUse" gradientTransform="translate(13.0454 14.7273) rotate(90) scale(4.90909 0.54548)">
<stop stop-color="#8F6329"/>
<stop offset="1" stop-color="#241F19"/>
</radialGradient>
<radialGradient id="paint6_radial" cx="0" cy="0" r="1" gradientUnits="userSpaceOnUse" gradientTransform="translate(6.49996 15) rotate(90) scale(8.99999 0.545481)">
<stop stop-color="#8F6329"/>
<stop offset="1" stop-color="#241F19"/>
</radialGradient>
<radialGradient id="paint7_radial" cx="0" cy="0" r="1" gradientUnits="userSpaceOnUse" gradientTransform="translate(21.2272 14.7272) rotate(90) scale(3.27276 0.545482)">
<stop stop-color="#8F6329"/>
<stop offset="1" stop-color="#241F19"/>
</radialGradient>
<radialGradient id="paint8_radial" cx="0" cy="0" r="1" gradientUnits="userSpaceOnUse" gradientTransform="translate(22.8636 14.7273) rotate(90) scale(4.90909 0.545481)">
<stop stop-color="#8F6329"/>
<stop offset="1" stop-color="#241F19"/>
</radialGradient>
<radialGradient id="paint9_radial" cx="0" cy="0" r="1" gradientUnits="userSpaceOnUse" gradientTransform="translate(26.1363 14.7272) rotate(90) scale(3.27276 0.545481)">
<stop stop-color="#8F6329"/>
<stop offset="1" stop-color="#241F19"/>
</radialGradient>
<radialGradient id="paint10_radial" cx="0" cy="0" r="1" gradientUnits="userSpaceOnUse" gradientTransform="translate(27.7727 14.7273) rotate(90) scale(4.90909 0.54548)">
<stop stop-color="#8F6329"/>
<stop offset="1" stop-color="#241F19"/>
</radialGradient>
<radialGradient id="paint11_radial" cx="0" cy="0" r="1" gradientUnits="userSpaceOnUse" gradientTransform="translate(24.4999 15) rotate(90) scale(8.99999 0.54548)">
<stop stop-color="#8F6329"/>
<stop offset="1" stop-color="#241F19"/>
</radialGradient>
<radialGradient id="paint12_radial" cx="0" cy="0" r="1" gradientUnits="userSpaceOnUse" gradientTransform="translate(14.6818 14.7272) rotate(90) scale(3.27276 0.545481)">
<stop stop-color="#8F6329"/>
<stop offset="1" stop-color="#241F19"/>
</radialGradient>
<radialGradient id="paint13_radial" cx="0" cy="0" r="1" gradientUnits="userSpaceOnUse" gradientTransform="translate(16.3181 14.7273) rotate(90) scale(4.90909 0.545483)">
<stop stop-color="#8F6329"/>
<stop offset="1" stop-color="#241F19"/>
</radialGradient>
<radialGradient id="paint14_radial" cx="0" cy="0" r="1" gradientUnits="userSpaceOnUse" gradientTransform="translate(17.9545 15) rotate(90) scale(8.99999 0.54548)">
<stop stop-color="#8F6329"/>
<stop offset="1" stop-color="#241F19"/>
</radialGradient>
<radialGradient id="paint15_radial" cx="0" cy="0" r="1" gradientUnits="userSpaceOnUse" gradientTransform="translate(19.5909 15) rotate(90) scale(10.6364 0.545479)">
<stop stop-color="#8F6329"/>
<stop offset="1" stop-color="#241F19"/>
</radialGradient>
</defs>
</svg>
