<svg width="18" height="18" viewBox="0 0 18 18" fill="none" xmlns="http://www.w3.org/2000/svg">
<path d="M12.375 0.632812H5.625C5.00368 0.632812 4.5 1.13649 4.5 1.75781V16.3828C4.5 17.0041 5.00368 17.5078 5.625 17.5078H12.375C12.9963 17.5078 13.5 17.0041 13.5 16.3828V1.75781C13.5 1.13649 12.9963 0.632812 12.375 0.632812Z" fill="#B99560"/>
<path d="M10.9688 2.03906H7.03125L6.75 0.632812H11.25L10.9688 2.03906Z" fill="#B99560"/>
<path d="M12.375 0.28125H5.625C5.25217 0.281669 4.89473 0.429961 4.63109 0.693594C4.36746 0.957226 4.21917 1.31467 4.21875 1.6875V16.3125C4.21917 16.6853 4.36746 17.0428 4.63109 17.3064C4.89473 17.57 5.25217 17.7183 5.625 17.7188H12.375C12.7478 17.7183 13.1053 17.57 13.3689 17.3064C13.6325 17.0428 13.7808 16.6853 13.7812 16.3125V1.6875C13.7808 1.31467 13.6325 0.957226 13.3689 0.693594C13.1053 0.429961 12.7478 0.281669 12.375 0.28125ZM10.9069 0.84375L10.7382 1.6875H7.26184L7.09309 0.84375H10.9069ZM13.2188 16.3125C13.2185 16.5362 13.1295 16.7507 12.9713 16.9088C12.8132 17.067 12.5987 17.156 12.375 17.1562H5.625C5.4013 17.156 5.18684 17.067 5.02866 16.9088C4.87048 16.7507 4.7815 16.5362 4.78125 16.3125V1.6875C4.7815 1.4638 4.87048 1.24934 5.02866 1.09116C5.18684 0.932977 5.4013 0.844001 5.625 0.84375H6.51941L6.75545 2.02391C6.7682 2.08767 6.80265 2.14504 6.85293 2.18626C6.90322 2.22748 6.96623 2.25 7.03125 2.25H10.9688C11.0338 2.25 11.0968 2.22748 11.1471 2.18626C11.1974 2.14504 11.2318 2.08767 11.2446 2.02391L11.4806 0.84375H12.375C12.5987 0.844001 12.8132 0.932977 12.9713 1.09116C13.1295 1.24934 13.2185 1.4638 13.2188 1.6875V16.3125Z" fill="#8F6329"/>
<path d="M7.3125 16.0312H5.625C5.55041 16.0312 5.47887 16.0609 5.42613 16.1136C5.37338 16.1664 5.34375 16.2379 5.34375 16.3125C5.34375 16.3871 5.37338 16.4586 5.42613 16.5114C5.47887 16.5641 5.55041 16.5938 5.625 16.5938H7.3125C7.38709 16.5938 7.45863 16.5641 7.51137 16.5114C7.56412 16.4586 7.59375 16.3871 7.59375 16.3125C7.59375 16.2379 7.56412 16.1664 7.51137 16.1136C7.45863 16.0609 7.38709 16.0312 7.3125 16.0312Z" fill="#8F6329"/>
<path d="M8.4375 16.0312H8.15625C8.08166 16.0312 8.01012 16.0609 7.95738 16.1136C7.90463 16.1664 7.875 16.2379 7.875 16.3125C7.875 16.3871 7.90463 16.4586 7.95738 16.5114C8.01012 16.5641 8.08166 16.5938 8.15625 16.5938H8.4375C8.51209 16.5938 8.58363 16.5641 8.63637 16.5114C8.68912 16.4586 8.71875 16.3871 8.71875 16.3125C8.71875 16.2379 8.68912 16.1664 8.63637 16.1136C8.58363 16.0609 8.51209 16.0312 8.4375 16.0312Z" fill="#8F6329"/>
</svg>
