<svg width="60" height="60" viewBox="0 0 60 60" fill="none" xmlns="http://www.w3.org/2000/svg">
<g clip-path="url(#clip0)">
<path d="M11.9391 37.7012H1.82536C0.817274 37.7012 0 38.5183 0 39.5266C0 40.5349 0.817274 41.3519 1.82536 41.3519H11.9391C12.9471 41.3519 13.7644 40.5349 13.7644 39.5266C13.7644 38.5183 12.9471 37.7012 11.9391 37.7012Z" fill="#8F6329"/>
<path d="M11.9391 31.4332H1.82536C0.817274 31.4332 0 32.2502 0 33.2585C0 34.2668 0.817274 35.0839 1.82536 35.0839H11.9391C12.9471 35.0839 13.7644 34.2668 13.7644 33.2585C13.7644 32.2502 12.9471 31.4332 11.9391 31.4332Z" fill="#8F6329"/>
<path d="M11.9391 25.1649H1.82536C0.817274 25.1649 0 25.9819 0 26.9902C0 27.9985 0.817274 28.8156 1.82536 28.8156H11.9391C12.9471 28.8156 13.7644 27.9985 13.7644 26.9902C13.7644 25.9819 12.9471 25.1649 11.9391 25.1649Z" fill="#8F6329"/>
<path d="M11.9391 43.9045H1.82536C0.817274 43.9045 0 44.7215 0 45.7298C0 46.7382 0.817274 47.5552 1.82536 47.5552H11.9391C12.9471 47.5552 13.7644 46.7382 13.7644 45.7298C13.7644 44.7215 12.9471 43.9045 11.9391 43.9045Z" fill="#8F6329"/>
<path d="M27.3509 37.7012H17.2372C16.2292 37.7012 15.4119 38.5183 15.4119 39.5266C15.4119 40.5349 16.2292 41.3519 17.2372 41.3519H27.3509C28.359 41.3519 29.1763 40.5349 29.1763 39.5266C29.1763 38.5183 28.359 37.7012 27.3509 37.7012Z" fill="#8F6329"/>
<path d="M27.3509 31.4332H17.2372C16.2292 31.4332 15.4119 32.2502 15.4119 33.2585C15.4119 34.2668 16.2292 35.0839 17.2372 35.0839H27.3509C28.359 35.0839 29.1763 34.2668 29.1763 33.2585C29.1763 32.2502 28.359 31.4332 27.3509 31.4332Z" fill="#8F6329"/>
<path d="M27.3509 18.8971H17.2372C16.2292 18.8971 15.4119 19.7141 15.4119 20.7225C15.4119 21.7308 16.2292 22.5478 17.2372 22.5478H27.3509C28.359 22.5478 29.1763 21.7308 29.1763 20.7225C29.1763 19.7144 28.359 18.8971 27.3509 18.8971Z" fill="#8F6329"/>
<path d="M27.3509 12.6286H17.2372C16.2292 12.6286 15.4119 13.4456 15.4119 14.454C15.4119 15.4623 16.2292 16.2793 17.2372 16.2793H27.3509C28.359 16.2793 29.1763 15.4623 29.1763 14.454C29.1763 13.4456 28.359 12.6286 27.3509 12.6286Z" fill="#8F6329"/>
<path d="M27.3509 6.36053H17.2372C16.2292 6.36053 15.4119 7.17756 15.4119 8.18589C15.4119 9.19422 16.2292 10.0112 17.2372 10.0112H27.3509C28.359 10.0112 29.1763 9.19422 29.1763 8.18589C29.1763 7.17756 28.359 6.36053 27.3509 6.36053Z" fill="#8F6329"/>
<path d="M27.3509 25.1649H17.2372C16.2292 25.1649 15.4119 25.9819 15.4119 26.9902C15.4119 27.9985 16.2292 28.8156 17.2372 28.8156H27.3509C28.359 28.8156 29.1763 27.9985 29.1763 26.9902C29.1763 25.9819 28.359 25.1649 27.3509 25.1649Z" fill="#8F6329"/>
<path d="M27.3509 43.9045H17.2372C16.2292 43.9045 15.4119 44.7215 15.4119 45.7298C15.4119 46.7382 16.2292 47.5552 17.2372 47.5552H27.3509C28.359 47.5552 29.1763 46.7382 29.1763 45.7298C29.1763 44.7215 28.359 43.9045 27.3509 43.9045Z" fill="#8F6329"/>
<path d="M42.7628 37.7012H32.6495C31.6415 37.7012 30.8242 38.5183 30.8242 39.5266C30.8242 40.5349 31.6415 41.3519 32.6495 41.3519H42.763C43.7711 41.3519 44.5884 40.5349 44.5884 39.5266C44.5881 38.5183 43.7708 37.7012 42.7628 37.7012Z" fill="#8F6329"/>
<path d="M42.7628 31.4332H32.6495C31.6415 31.4332 30.8242 32.2502 30.8242 33.2585C30.8242 34.2668 31.6415 35.0839 32.6495 35.0839H42.763C43.7711 35.0839 44.5884 34.2668 44.5884 33.2585C44.5881 32.2502 43.7708 31.4332 42.7628 31.4332Z" fill="#8F6329"/>
<path d="M42.7628 18.8971H32.6495C31.6415 18.8971 30.8242 19.7141 30.8242 20.7225C30.8242 21.7308 31.6415 22.5478 32.6495 22.5478H42.763C43.7711 22.5478 44.5884 21.7308 44.5884 20.7225C44.5881 19.7144 43.7708 18.8971 42.7628 18.8971Z" fill="#8F6329"/>
<path d="M42.7628 25.1649H32.6495C31.6415 25.1649 30.8242 25.9819 30.8242 26.9902C30.8242 27.9985 31.6415 28.8156 32.6495 28.8156H42.763C43.7711 28.8156 44.5884 27.9985 44.5884 26.9902C44.5881 25.9819 43.7708 25.1649 42.7628 25.1649Z" fill="#8F6329"/>
<path d="M42.7628 43.9045H32.6495C31.6415 43.9045 30.8242 44.7215 30.8242 45.7298C30.8242 46.7382 31.6415 47.5552 32.6495 47.5552H42.763C43.7711 47.5552 44.5884 46.7382 44.5884 45.7298C44.5881 44.7215 43.7708 43.9045 42.7628 43.9045Z" fill="#8F6329"/>
<path d="M58.1746 37.7012H48.0612C47.0531 37.7012 46.2358 38.5183 46.2358 39.5266C46.2358 40.5349 47.0531 41.3519 48.0612 41.3519H58.1746C59.1827 41.3519 60 40.5349 60 39.5266C60 38.5183 59.1827 37.7012 58.1746 37.7012Z" fill="#8F6329"/>
<path d="M58.1746 43.9045H48.0612C47.0531 43.9045 46.2358 44.7215 46.2358 45.7298C46.2358 46.7382 47.0531 47.5552 48.0612 47.5552H58.1746C59.1827 47.5552 60 46.7382 60 45.7298C60 44.7215 59.1827 43.9045 58.1746 43.9045Z" fill="#8F6329"/>
<path d="M11.9391 49.9888H1.82536C0.817274 49.9888 0 50.8058 0 51.8141C0 52.8225 0.817274 53.6395 1.82536 53.6395H11.9391C12.9471 53.6395 13.7644 52.8225 13.7644 51.8141C13.7644 50.806 12.9471 49.9888 11.9391 49.9888Z" fill="#8F6329"/>
<path d="M27.3509 49.9888H17.2372C16.2292 49.9888 15.4119 50.8058 15.4119 51.8141C15.4119 52.8225 16.2292 53.6395 17.2372 53.6395H27.3509C28.359 53.6395 29.1763 52.8225 29.1763 51.8141C29.1763 50.806 28.359 49.9888 27.3509 49.9888Z" fill="#8F6329"/>
<path d="M42.7628 49.9888H32.6495C31.6415 49.9888 30.8242 50.8058 30.8242 51.8141C30.8242 52.8225 31.6415 53.6395 32.6495 53.6395H42.763C43.7711 53.6395 44.5884 52.8225 44.5884 51.8141C44.5881 50.806 43.7708 49.9888 42.7628 49.9888Z" fill="#8F6329"/>
<path d="M58.1746 49.9888H48.0612C47.0531 49.9888 46.2358 50.8058 46.2358 51.8141C46.2358 52.8225 47.0531 53.6395 48.0612 53.6395H58.1746C59.1827 53.6395 60 52.8225 60 51.8141C60 50.806 59.1827 49.9888 58.1746 49.9888Z" fill="#8F6329"/>
<path d="M58.1746 31.4332H48.0612C47.0531 31.4332 46.2358 32.2502 46.2358 33.2585C46.2358 34.2668 47.0531 35.0839 48.0612 35.0839H58.1746C59.1827 35.0839 60 34.2668 60 33.2585C60 32.2502 59.1827 31.4332 58.1746 31.4332Z" fill="#8F6329"/>
<path d="M58.1746 18.8971H48.0612C47.0531 18.8971 46.2358 19.7141 46.2358 20.7225C46.2358 21.7308 47.0531 22.5478 48.0612 22.5478H58.1746C59.1827 22.5478 60 21.7308 60 20.7225C60 19.7144 59.1827 18.8971 58.1746 18.8971Z" fill="#8F6329"/>
<path d="M48.0614 16.2793H58.1749C59.183 16.2793 60.0003 15.4623 60.0003 14.454C60.0003 13.4456 59.183 12.6286 58.1749 12.6286H48.0614C47.0533 12.6286 46.2361 13.4456 46.2361 14.454C46.2361 15.4623 47.0533 16.2793 48.0614 16.2793Z" fill="#8F6329"/>
<path d="M58.1746 25.1649H48.0612C47.0531 25.1649 46.2358 25.9819 46.2358 26.9902C46.2358 27.9985 47.0531 28.8156 48.0612 28.8156H58.1746C59.1827 28.8156 60 27.9985 60 26.9902C60 25.9819 59.1827 25.1649 58.1746 25.1649Z" fill="#8F6329"/>
</g>
<defs>
<clipPath id="clip0">
<rect width="60" height="60" fill="white"/>
</clipPath>
</defs>
</svg>
