<svg width="65" height="65" viewBox="0 0 65 65" fill="none" xmlns="http://www.w3.org/2000/svg">
<g opacity="0.8" filter="url(#filter0_d)">
<path d="M52.1543 9.41962C47.3187 4.58383 41.1229 1.60228 34.4296 0.832115C32.5116 0.611417 30.9412 2.1979 30.9412 4.12856C30.9412 6.05922 32.5155 7.59638 34.4241 7.88743C45.4642 9.57099 53.9496 19.1295 53.9496 30.6328C53.9496 43.3196 43.6282 53.6413 30.9412 53.6413C19.438 53.6413 9.87938 45.1559 8.19581 34.1157C7.90475 32.2071 6.36759 30.6328 4.43693 30.6328C2.50627 30.6328 0.91979 32.2033 1.14049 34.1213C1.91066 40.8145 4.8922 47.0103 9.72799 51.846C15.3942 57.5121 22.9279 60.6328 30.9412 60.6328C38.9544 60.6328 46.4881 57.5123 52.1543 51.846C57.8204 46.1797 60.9412 38.6461 60.9412 30.6328C60.9412 22.6195 57.8206 15.0858 52.1543 9.41962Z" fill="#8F6329"/>
</g>
<defs>
<filter id="filter0_d" x="1.11993" y="0.811554" width="63.8212" height="63.8212" filterUnits="userSpaceOnUse" color-interpolation-filters="sRGB">
<feFlood flood-opacity="0" result="BackgroundImageFix"/>
<feColorMatrix in="SourceAlpha" type="matrix" values="0 0 0 0 0 0 0 0 0 0 0 0 0 0 0 0 0 0 127 0"/>
<feOffset dx="2" dy="2"/>
<feGaussianBlur stdDeviation="1"/>
<feColorMatrix type="matrix" values="0 0 0 0 0.72549 0 0 0 0 0.584314 0 0 0 0 0.376471 0 0 0 0.25 0"/>
<feBlend mode="normal" in2="BackgroundImageFix" result="effect1_dropShadow"/>
<feBlend mode="normal" in="SourceGraphic" in2="effect1_dropShadow" result="shape"/>
</filter>
</defs>
</svg>
