<svg width="66" height="66" viewBox="0 0 66 66" fill="none" xmlns="http://www.w3.org/2000/svg">
<g opacity="0.8" filter="url(#filter0_d)">
<path d="M8.95259 51.256C13.7883 56.0918 19.984 59.0734 26.6773 59.8436C28.5953 60.0642 30.1658 58.4778 30.1658 56.5471C30.1658 54.6164 28.5914 53.0793 26.6828 52.7882C15.6427 51.1047 7.15731 41.5461 7.15731 30.0429C7.15731 17.356 17.4788 7.03442 30.1658 7.03442C41.6689 7.03442 51.2276 15.5198 52.9111 26.5599C53.2022 28.4685 54.7393 30.0429 56.67 30.0429C58.6007 30.0429 60.1871 28.4724 59.9664 26.5544C59.1963 19.8612 56.2147 13.6654 51.3789 8.8297C45.7127 3.16362 38.1791 0.0428734 30.1658 0.0428734C22.1525 0.0428734 14.6188 3.16334 8.95259 8.8297C3.28651 14.4959 0.165768 22.0296 0.165768 30.0429C0.165768 38.0562 3.28637 45.5898 8.95259 51.256Z" fill="#241F19"/>
</g>
<defs>
<filter id="filter0_d" x="0.165768" y="0.0428772" width="65.8212" height="65.8212" filterUnits="userSpaceOnUse" color-interpolation-filters="sRGB">
<feFlood flood-opacity="0" result="BackgroundImageFix"/>
<feColorMatrix in="SourceAlpha" type="matrix" values="0 0 0 0 0 0 0 0 0 0 0 0 0 0 0 0 0 0 127 0"/>
<feOffset dx="3" dy="3"/>
<feGaussianBlur stdDeviation="1.5"/>
<feColorMatrix type="matrix" values="0 0 0 0 0.00784314 0 0 0 0 0.00784314 0 0 0 0 0.00784314 0 0 0 0.25 0"/>
<feBlend mode="normal" in2="BackgroundImageFix" result="effect1_dropShadow"/>
<feBlend mode="normal" in="SourceGraphic" in2="effect1_dropShadow" result="shape"/>
</filter>
</defs>
</svg>
