<svg width="40" height="40" viewBox="0 0 40 40" fill="none" xmlns="http://www.w3.org/2000/svg">
<g clip-path="url(#clip0)">
<path d="M0.833359 30.8334H5.83336C6.29359 30.8334 6.66672 31.2065 6.66672 31.6667V38.3334C6.66672 38.7936 6.29359 39.1667 5.83336 39.1667H0.833359C0.373125 39.1667 0 38.7936 0 38.3334V31.6667C0 31.2064 0.373125 30.8334 0.833359 30.8334Z" fill="#8F6329"/>
<path d="M9.16664 24.1666H14.1666C14.6269 24.1666 15 24.5398 15 25V38.3333C15 38.7936 14.6269 39.1667 14.1666 39.1667H9.16664C8.70641 39.1667 8.33328 38.7936 8.33328 38.3333V25C8.33336 24.5398 8.70641 24.1666 9.16664 24.1666Z" fill="#8F6329"/>
<path d="M17.5 15.8334H22.5C22.9602 15.8334 23.3334 16.2065 23.3334 16.6667V38.3334C23.3334 38.7936 22.9602 39.1667 22.5 39.1667H17.5C17.0398 39.1667 16.6666 38.7936 16.6666 38.3334V16.6667C16.6666 16.2064 17.0398 15.8334 17.5 15.8334Z" fill="#8F6329"/>
<path d="M25.8334 7.5H30.8334C31.2936 7.5 31.6667 7.87313 31.6667 8.33336V38.3334C31.6667 38.7936 31.2936 39.1667 30.8334 39.1667H25.8334C25.3731 39.1667 25 38.7936 25 38.3334V8.33336C25 7.87313 25.3731 7.5 25.8334 7.5Z" fill="#8F6329"/>
<path d="M34.1666 0.833374H39.1666C39.6269 0.833374 40 1.2065 40 1.66673V38.3334C40 38.7936 39.6269 39.1667 39.1666 39.1667H34.1666C33.7064 39.1667 33.3333 38.7936 33.3333 38.3334V1.66666C33.3333 1.20642 33.7064 0.833374 34.1666 0.833374Z" fill="#8F6329"/>
</g>
<defs>
<clipPath id="clip0">
<rect width="40" height="40" fill="white"/>
</clipPath>
</defs>
</svg>
