<svg width="13" height="13" viewBox="0 0 13 13" fill="none" xmlns="http://www.w3.org/2000/svg">
<g clip-path="url(#clip0)">
<path d="M1.34501 5.51046C1.03031 5.82348 0.521404 5.82209 0.208385 5.50729C-0.104535 5.19258 -0.103146 4.68378 0.211559 4.37076C1.02723 3.55618 2.00289 2.89909 3.08864 2.4498C4.13551 2.01647 5.27888 1.77734 6.47343 1.77734C7.66867 1.77734 8.81264 2.01667 9.85981 2.45039C10.9461 2.90019 11.922 3.55776 12.7376 4.37294C13.0524 4.68596 13.0538 5.19487 12.7408 5.50957C12.4277 5.82428 11.9189 5.82576 11.6042 5.51274C10.9336 4.84237 10.1346 4.30322 9.24895 3.93644C8.39776 3.58385 7.46049 3.38925 6.47343 3.38925C5.48686 3.38925 4.55019 3.58365 3.6994 3.93575C2.814 4.30233 2.01539 4.84098 1.34501 5.51046Z" fill="#B99560"/>
<path d="M0.994206 5.50729C0.681286 5.19258 0.682674 4.68378 0.99738 4.37076C1.81305 3.55618 2.78871 2.89909 3.87446 2.4498C4.80588 2.06418 5.81397 1.83289 6.86639 1.78647C6.73606 1.78072 6.60514 1.77734 6.47353 1.77734C5.27888 1.77734 4.13551 2.01647 3.08864 2.4498C2.00289 2.89909 1.02723 3.55618 0.211559 4.37076C-0.103146 4.68378 -0.104535 5.19258 0.208385 5.50729C0.468738 5.76903 0.864376 5.81386 1.17125 5.64168C1.10777 5.60608 1.04806 5.56144 0.994206 5.50729Z" fill="#8F6329"/>
<path d="M3.62463 7.79006C3.99765 7.41793 4.44109 7.11879 4.93224 6.91567C5.40316 6.72087 5.92347 6.61336 6.47354 6.61336C7.024 6.61336 7.5449 6.72107 8.01631 6.91626C8.50756 7.11959 8.95141 7.41932 9.32473 7.79234C9.63943 8.10536 10.1483 8.10388 10.4613 7.78917C10.7743 7.47446 10.7729 6.96556 10.4582 6.65263C9.93986 6.1347 9.31878 5.71655 8.62718 5.43021C7.95968 5.15389 7.23208 5.00134 6.47354 5.00134C5.71568 5.00134 4.98868 5.15359 4.32148 5.42951C3.63048 5.71536 3.00979 6.13292 2.49127 6.65035C2.17657 6.96327 2.17518 7.47218 2.4882 7.78689C2.80102 8.10159 3.30992 8.10308 3.62463 7.79006Z" fill="#B99560"/>
<path d="M3.27392 7.78689C2.9609 7.47218 2.96229 6.96327 3.2771 6.65035C3.79562 6.13292 4.41631 5.71536 5.10731 5.42951C5.65827 5.20169 6.25009 5.05837 6.86641 5.01533C6.73649 5.0062 6.60547 5.00134 6.47355 5.00134C5.7157 5.00134 4.98859 5.15359 4.32149 5.42951C3.63049 5.71536 3.0098 6.13292 2.49128 6.65035C2.17657 6.96327 2.17508 7.47218 2.4881 7.78689C2.74836 8.04863 3.144 8.09346 3.45087 7.92128C3.38749 7.88567 3.32778 7.84104 3.27392 7.78689Z" fill="#8F6329"/>
<path d="M6.47352 11.2654C7.36139 11.2654 8.08542 10.5413 8.08542 9.6534C8.08542 8.76551 7.36139 8.04138 6.47352 8.04138C5.58564 8.04138 4.86151 8.76551 4.86151 9.6534C4.86151 10.5413 5.58564 11.2654 6.47352 11.2654Z" fill="#B99560"/>
<path d="M5.64733 9.6534C5.64733 8.901 6.16734 8.26633 6.86638 8.09018C6.74052 8.05844 6.609 8.04138 6.47352 8.04138C5.58564 8.04138 4.86151 8.76551 4.86151 9.6534C4.86151 10.5413 5.58564 11.2654 6.47352 11.2654C6.609 11.2654 6.74052 11.2484 6.86638 11.2166C6.16734 11.0405 5.64733 10.4058 5.64733 9.6534Z" fill="#8F6329"/>
</g>
<defs>
<clipPath id="clip0">
<rect width="13" height="13" fill="white"/>
</clipPath>
</defs>
</svg>
