<svg width="50" height="50" viewBox="0 0 50 50" fill="none" xmlns="http://www.w3.org/2000/svg">
<g clip-path="url(#clip0)">
<g filter="url(#filter0_d)">
<path d="M45.8333 5.72919H4.16665C1.86873 5.72919 -1.52588e-05 7.59794 -1.52588e-05 9.89585V40.1042C-1.52588e-05 42.4021 1.86873 44.2709 4.16665 44.2709H45.8333C48.1312 44.2709 50 42.4021 50 40.1042V9.89585C50 7.59794 48.1312 5.72919 45.8333 5.72919ZM6.24998 15.7292C6.24998 13.8912 7.7453 12.3959 9.58332 12.3959H15C16.838 12.3959 18.3333 13.8912 18.3333 15.7292V21.1459C18.3333 22.9839 16.838 24.4792 15 24.4792H9.58332C7.7453 24.4792 6.24998 22.9839 6.24998 21.1459V15.7292ZM14.375 36.9792H7.08332C6.62311 36.9792 6.24998 36.6061 6.24998 36.1459C6.24998 35.6857 6.62311 35.3125 7.08332 35.3125H14.375C14.8352 35.3125 15.2083 35.6857 15.2083 36.1459C15.2083 36.6061 14.8352 36.9792 14.375 36.9792ZM18.3333 36.9792H17.8125C17.3523 36.9792 16.9792 36.6061 16.9792 36.1459C16.9792 35.6857 17.3523 35.3125 17.8125 35.3125H18.3333C18.7935 35.3125 19.1667 35.6857 19.1667 36.1459C19.1667 36.6061 18.7935 36.9792 18.3333 36.9792ZM24.4792 31.25H7.08332C6.62311 31.25 6.24998 30.8769 6.24998 30.4167C6.24998 29.9565 6.62311 29.5834 7.08332 29.5834H24.4792C24.9394 29.5834 25.3125 29.9565 25.3125 30.4167C25.3125 30.8769 24.9394 31.25 24.4792 31.25ZM30.8333 31.25H28.75C28.2898 31.25 27.9167 30.8769 27.9167 30.4167C27.9167 29.9565 28.2898 29.5834 28.75 29.5834H30.8333C31.2935 29.5834 31.6667 29.9565 31.6667 30.4167C31.6667 30.8769 31.2935 31.25 30.8333 31.25ZM36.875 31.25H34.8958C34.4356 31.25 34.0625 30.8769 34.0625 30.4167C34.0625 29.9565 34.4356 29.5834 34.8958 29.5834H36.875C37.3352 29.5834 37.7083 29.9565 37.7083 30.4167C37.7083 30.8769 37.3352 31.25 36.875 31.25ZM34.5559 21.4259C35.1663 20.8152 36.1551 20.815 36.7658 21.426C37.3761 22.0365 37.3764 23.0249 36.7657 23.6356C36.1553 24.2461 35.1666 24.2464 34.5559 23.6356C33.9455 23.0252 33.9453 22.0366 34.5559 21.4259ZM38.9018 20.1233C38.6884 20.1233 38.4752 20.0419 38.3125 19.8791C36.847 18.4136 34.4751 18.4134 33.0093 19.8792C32.6837 20.2045 32.1562 20.2045 31.8307 19.8792C31.5053 19.5537 31.5053 19.0262 31.8307 18.7006C33.9478 16.5838 37.374 16.5835 39.4911 18.7008C40.0177 19.2273 39.6373 20.1233 38.9018 20.1233ZM41.9953 17.0296C41.782 17.0296 41.5687 16.9483 41.406 16.7855C38.231 13.6101 33.0911 13.6096 29.9156 16.7855C29.5901 17.1109 29.0626 17.1109 28.7371 16.7855C28.4117 16.4601 28.4117 15.9325 28.7371 15.607C32.5642 11.7801 38.7574 11.78 42.5847 15.607C43.1113 16.1339 42.7309 17.0296 41.9953 17.0296Z" fill="#8F6329"/>
</g>
</g>
<defs>
<filter id="filter0_d" x="-2.00002" y="5.72919" width="54" height="43.5417" filterUnits="userSpaceOnUse" color-interpolation-filters="sRGB">
<feFlood flood-opacity="0" result="BackgroundImageFix"/>
<feColorMatrix in="SourceAlpha" type="matrix" values="0 0 0 0 0 0 0 0 0 0 0 0 0 0 0 0 0 0 127 0"/>
<feOffset dy="3"/>
<feGaussianBlur stdDeviation="1"/>
<feColorMatrix type="matrix" values="0 0 0 0 0.560784 0 0 0 0 0.388235 0 0 0 0 0.160784 0 0 0 0.25 0"/>
<feBlend mode="normal" in2="BackgroundImageFix" result="effect1_dropShadow"/>
<feBlend mode="normal" in="SourceGraphic" in2="effect1_dropShadow" result="shape"/>
</filter>
<clipPath id="clip0">
<rect width="50" height="50" fill="white"/>
</clipPath>
</defs>
</svg>
